<mxfile host="app.diagrams.net" modified="2024-03-14T02:54:21.554Z" agent="Mozilla/5.0 (Windows NT 10.0; Win64; x64) AppleWebKit/537.36 (KHTML, like Gecko) Chrome/122.0.0.0 Safari/537.36" etag="c6z3E8ZSCUcz6AdT6jME" version="24.0.6" type="device">
  <diagram name="Page-1" id="f1b7ffb7-ca1e-a977-7cf5-a751b3c06c05">
    <mxGraphModel dx="1985" dy="1030" grid="1" gridSize="10" guides="1" tooltips="1" connect="1" arrows="1" fold="1" page="1" pageScale="1" pageWidth="826" pageHeight="1169" background="none" math="0" shadow="0">
      <root>
        <mxCell id="0" />
        <mxCell id="1" parent="0" />
        <mxCell id="tOvZx4sOItoQ3xUYVQ2d-61" value="" style="rounded=1;whiteSpace=wrap;html=1;arcSize=8;" vertex="1" parent="1">
          <mxGeometry width="820" height="1160" as="geometry" />
        </mxCell>
        <mxCell id="tOvZx4sOItoQ3xUYVQ2d-62" value="&lt;font style=&quot;font-size: 24px;&quot;&gt;Log Out&lt;/font&gt;" style="rounded=1;whiteSpace=wrap;html=1;arcSize=33;" vertex="1" parent="1">
          <mxGeometry x="30" y="1080" width="760" height="60" as="geometry" />
        </mxCell>
        <mxCell id="tOvZx4sOItoQ3xUYVQ2d-63" value="Booked trips area" style="rounded=1;whiteSpace=wrap;html=1;fontSize=24;" vertex="1" parent="1">
          <mxGeometry x="28" y="640" width="770" height="350" as="geometry" />
        </mxCell>
        <mxCell id="tOvZx4sOItoQ3xUYVQ2d-64" value="User Information" style="rounded=1;whiteSpace=wrap;html=1;fontSize=24;" vertex="1" parent="1">
          <mxGeometry x="28" y="234" width="770" height="350" as="geometry" />
        </mxCell>
        <mxCell id="tOvZx4sOItoQ3xUYVQ2d-66" value="IMG BTN&lt;div&gt;Logo&lt;/div&gt;" style="rounded=1;whiteSpace=wrap;html=1;" vertex="1" parent="1">
          <mxGeometry x="20" y="20" width="180" height="100" as="geometry" />
        </mxCell>
      </root>
    </mxGraphModel>
  </diagram>
</mxfile>
